<mxfile host="app.diagrams.net" agent="Mozilla/5.0 (Windows NT 10.0; Win64; x64) AppleWebKit/537.36 (KHTML, like Gecko) Chrome/126.0.0.0 YaBrowser/24.7.0.0 Safari/537.36" version="24.7.14">
  <diagram name="Страница — 1" id="4QJv3jaGsrwVp_lWLO2V">
    <mxGraphModel dx="1290" dy="663" grid="1" gridSize="10" guides="1" tooltips="1" connect="1" arrows="1" fold="1" page="1" pageScale="1" pageWidth="1169" pageHeight="1654" math="0" shadow="0">
      <root>
        <mxCell id="0" />
        <mxCell id="1" parent="0" />
        <mxCell id="GqJsvD4xnzZzUc4GvRp6-51" style="edgeStyle=orthogonalEdgeStyle;rounded=0;orthogonalLoop=1;jettySize=auto;html=1;exitX=0.5;exitY=0;exitDx=0;exitDy=0;entryX=0.5;entryY=1;entryDx=0;entryDy=0;" parent="1" source="GqJsvD4xnzZzUc4GvRp6-10" target="GqJsvD4xnzZzUc4GvRp6-48" edge="1">
          <mxGeometry relative="1" as="geometry" />
        </mxCell>
        <mxCell id="GqJsvD4xnzZzUc4GvRp6-52" style="edgeStyle=orthogonalEdgeStyle;rounded=0;orthogonalLoop=1;jettySize=auto;html=1;exitX=0.5;exitY=0;exitDx=0;exitDy=0;entryX=0.5;entryY=1;entryDx=0;entryDy=0;" parent="1" source="GqJsvD4xnzZzUc4GvRp6-10" target="GqJsvD4xnzZzUc4GvRp6-49" edge="1">
          <mxGeometry relative="1" as="geometry" />
        </mxCell>
        <mxCell id="GqJsvD4xnzZzUc4GvRp6-53" style="edgeStyle=orthogonalEdgeStyle;rounded=0;orthogonalLoop=1;jettySize=auto;html=1;exitX=0.5;exitY=0;exitDx=0;exitDy=0;entryX=0.5;entryY=1;entryDx=0;entryDy=0;" parent="1" source="GqJsvD4xnzZzUc4GvRp6-10" target="GqJsvD4xnzZzUc4GvRp6-50" edge="1">
          <mxGeometry relative="1" as="geometry" />
        </mxCell>
        <mxCell id="GqJsvD4xnzZzUc4GvRp6-73" style="edgeStyle=orthogonalEdgeStyle;rounded=0;orthogonalLoop=1;jettySize=auto;html=1;exitX=0.5;exitY=0;exitDx=0;exitDy=0;entryX=0.5;entryY=1;entryDx=0;entryDy=0;" parent="1" source="GqJsvD4xnzZzUc4GvRp6-10" target="GqJsvD4xnzZzUc4GvRp6-71" edge="1">
          <mxGeometry relative="1" as="geometry" />
        </mxCell>
        <mxCell id="GqJsvD4xnzZzUc4GvRp6-74" style="edgeStyle=orthogonalEdgeStyle;rounded=0;orthogonalLoop=1;jettySize=auto;html=1;exitX=0.5;exitY=0;exitDx=0;exitDy=0;entryX=0.5;entryY=1;entryDx=0;entryDy=0;" parent="1" source="GqJsvD4xnzZzUc4GvRp6-10" target="GqJsvD4xnzZzUc4GvRp6-70" edge="1">
          <mxGeometry relative="1" as="geometry" />
        </mxCell>
        <mxCell id="GqJsvD4xnzZzUc4GvRp6-10" value="Track" style="whiteSpace=wrap;html=1;align=center;" parent="1" vertex="1">
          <mxGeometry x="414" y="140" width="100" height="40" as="geometry" />
        </mxCell>
        <mxCell id="GqJsvD4xnzZzUc4GvRp6-23" style="edgeStyle=orthogonalEdgeStyle;rounded=0;orthogonalLoop=1;jettySize=auto;html=1;exitX=0;exitY=0.5;exitDx=0;exitDy=0;entryX=1;entryY=0.5;entryDx=0;entryDy=0;" parent="1" target="GqJsvD4xnzZzUc4GvRp6-13" edge="1">
          <mxGeometry relative="1" as="geometry">
            <mxPoint x="250" y="315" as="sourcePoint" />
          </mxGeometry>
        </mxCell>
        <mxCell id="GqJsvD4xnzZzUc4GvRp6-24" style="edgeStyle=orthogonalEdgeStyle;rounded=0;orthogonalLoop=1;jettySize=auto;html=1;exitX=0;exitY=0.5;exitDx=0;exitDy=0;entryX=1;entryY=0.5;entryDx=0;entryDy=0;" parent="1" target="GqJsvD4xnzZzUc4GvRp6-14" edge="1">
          <mxGeometry relative="1" as="geometry">
            <mxPoint x="250" y="315" as="sourcePoint" />
          </mxGeometry>
        </mxCell>
        <mxCell id="GqJsvD4xnzZzUc4GvRp6-25" style="edgeStyle=orthogonalEdgeStyle;rounded=0;orthogonalLoop=1;jettySize=auto;html=1;exitX=0;exitY=0.5;exitDx=0;exitDy=0;entryX=1;entryY=0.5;entryDx=0;entryDy=0;" parent="1" target="GqJsvD4xnzZzUc4GvRp6-15" edge="1">
          <mxGeometry relative="1" as="geometry">
            <mxPoint x="250" y="315" as="sourcePoint" />
          </mxGeometry>
        </mxCell>
        <mxCell id="GqJsvD4xnzZzUc4GvRp6-26" style="edgeStyle=orthogonalEdgeStyle;rounded=0;orthogonalLoop=1;jettySize=auto;html=1;exitX=0;exitY=0.5;exitDx=0;exitDy=0;entryX=1;entryY=0.5;entryDx=0;entryDy=0;" parent="1" target="GqJsvD4xnzZzUc4GvRp6-16" edge="1">
          <mxGeometry relative="1" as="geometry">
            <mxPoint x="250" y="315" as="sourcePoint" />
          </mxGeometry>
        </mxCell>
        <mxCell id="GqJsvD4xnzZzUc4GvRp6-27" style="edgeStyle=orthogonalEdgeStyle;rounded=0;orthogonalLoop=1;jettySize=auto;html=1;exitX=0;exitY=0.5;exitDx=0;exitDy=0;entryX=1;entryY=0.5;entryDx=0;entryDy=0;" parent="1" target="GqJsvD4xnzZzUc4GvRp6-17" edge="1">
          <mxGeometry relative="1" as="geometry">
            <mxPoint x="250" y="315" as="sourcePoint" />
          </mxGeometry>
        </mxCell>
        <mxCell id="GqJsvD4xnzZzUc4GvRp6-28" style="edgeStyle=orthogonalEdgeStyle;rounded=0;orthogonalLoop=1;jettySize=auto;html=1;exitX=0;exitY=0.5;exitDx=0;exitDy=0;entryX=1;entryY=0.5;entryDx=0;entryDy=0;" parent="1" target="GqJsvD4xnzZzUc4GvRp6-18" edge="1">
          <mxGeometry relative="1" as="geometry">
            <mxPoint x="250" y="315" as="sourcePoint" />
          </mxGeometry>
        </mxCell>
        <mxCell id="GqJsvD4xnzZzUc4GvRp6-29" style="edgeStyle=orthogonalEdgeStyle;rounded=0;orthogonalLoop=1;jettySize=auto;html=1;exitX=0;exitY=0.5;exitDx=0;exitDy=0;entryX=1;entryY=0.5;entryDx=0;entryDy=0;" parent="1" target="GqJsvD4xnzZzUc4GvRp6-19" edge="1">
          <mxGeometry relative="1" as="geometry">
            <mxPoint x="250" y="315" as="sourcePoint" />
          </mxGeometry>
        </mxCell>
        <mxCell id="GqJsvD4xnzZzUc4GvRp6-30" style="edgeStyle=orthogonalEdgeStyle;rounded=0;orthogonalLoop=1;jettySize=auto;html=1;exitX=0;exitY=0.5;exitDx=0;exitDy=0;entryX=1;entryY=0.5;entryDx=0;entryDy=0;" parent="1" target="GqJsvD4xnzZzUc4GvRp6-20" edge="1">
          <mxGeometry relative="1" as="geometry">
            <mxPoint x="250" y="315" as="sourcePoint" />
          </mxGeometry>
        </mxCell>
        <mxCell id="GqJsvD4xnzZzUc4GvRp6-35" style="edgeStyle=orthogonalEdgeStyle;rounded=0;orthogonalLoop=1;jettySize=auto;html=1;exitX=0;exitY=0.5;exitDx=0;exitDy=0;entryX=1;entryY=0.5;entryDx=0;entryDy=0;" parent="1" target="GqJsvD4xnzZzUc4GvRp6-34" edge="1">
          <mxGeometry relative="1" as="geometry">
            <mxPoint x="250" y="315" as="sourcePoint" />
          </mxGeometry>
        </mxCell>
        <mxCell id="GqJsvD4xnzZzUc4GvRp6-13" value="&lt;u&gt;login&lt;/u&gt;" style="ellipse;whiteSpace=wrap;html=1;align=center;" parent="1" vertex="1">
          <mxGeometry x="90" y="140" width="90" height="30" as="geometry" />
        </mxCell>
        <mxCell id="GqJsvD4xnzZzUc4GvRp6-14" value="password" style="ellipse;whiteSpace=wrap;html=1;align=center;" parent="1" vertex="1">
          <mxGeometry x="90" y="180" width="90" height="30" as="geometry" />
        </mxCell>
        <mxCell id="GqJsvD4xnzZzUc4GvRp6-15" value="name" style="ellipse;whiteSpace=wrap;html=1;align=center;" parent="1" vertex="1">
          <mxGeometry x="90" y="220" width="90" height="30" as="geometry" />
        </mxCell>
        <mxCell id="GqJsvD4xnzZzUc4GvRp6-16" value="surname" style="ellipse;whiteSpace=wrap;html=1;align=center;" parent="1" vertex="1">
          <mxGeometry x="90" y="260" width="90" height="30" as="geometry" />
        </mxCell>
        <mxCell id="GqJsvD4xnzZzUc4GvRp6-17" value="patronic" style="ellipse;whiteSpace=wrap;html=1;align=center;" parent="1" vertex="1">
          <mxGeometry x="90" y="300" width="90" height="30" as="geometry" />
        </mxCell>
        <mxCell id="GqJsvD4xnzZzUc4GvRp6-18" value="date of birth" style="ellipse;whiteSpace=wrap;html=1;align=center;" parent="1" vertex="1">
          <mxGeometry x="90" y="340" width="90" height="30" as="geometry" />
        </mxCell>
        <mxCell id="GqJsvD4xnzZzUc4GvRp6-19" value="subscribe" style="ellipse;whiteSpace=wrap;html=1;align=center;" parent="1" vertex="1">
          <mxGeometry x="90" y="380" width="90" height="30" as="geometry" />
        </mxCell>
        <mxCell id="GqJsvD4xnzZzUc4GvRp6-20" value="phone number" style="ellipse;whiteSpace=wrap;html=1;align=center;" parent="1" vertex="1">
          <mxGeometry x="90" y="420" width="90" height="30" as="geometry" />
        </mxCell>
        <mxCell id="GqJsvD4xnzZzUc4GvRp6-34" value="email" style="ellipse;whiteSpace=wrap;html=1;align=center;" parent="1" vertex="1">
          <mxGeometry x="90" y="460" width="90" height="30" as="geometry" />
        </mxCell>
        <mxCell id="GqJsvD4xnzZzUc4GvRp6-37" value="follow" style="shape=rhombus;perimeter=rhombusPerimeter;whiteSpace=wrap;html=1;align=center;" parent="1" vertex="1">
          <mxGeometry x="410" y="285" width="120" height="60" as="geometry" />
        </mxCell>
        <mxCell id="GqJsvD4xnzZzUc4GvRp6-75" style="edgeStyle=orthogonalEdgeStyle;rounded=0;orthogonalLoop=1;jettySize=auto;html=1;exitX=0.5;exitY=1;exitDx=0;exitDy=0;entryX=1;entryY=0.5;entryDx=0;entryDy=0;" parent="1" source="GqJsvD4xnzZzUc4GvRp6-40" target="GqJsvD4xnzZzUc4GvRp6-65" edge="1">
          <mxGeometry relative="1" as="geometry" />
        </mxCell>
        <mxCell id="GqJsvD4xnzZzUc4GvRp6-78" style="edgeStyle=orthogonalEdgeStyle;rounded=0;orthogonalLoop=1;jettySize=auto;html=1;exitX=0.5;exitY=1;exitDx=0;exitDy=0;entryX=1;entryY=0.5;entryDx=0;entryDy=0;" parent="1" source="GqJsvD4xnzZzUc4GvRp6-40" target="GqJsvD4xnzZzUc4GvRp6-66" edge="1">
          <mxGeometry relative="1" as="geometry" />
        </mxCell>
        <mxCell id="GqJsvD4xnzZzUc4GvRp6-80" style="edgeStyle=orthogonalEdgeStyle;rounded=0;orthogonalLoop=1;jettySize=auto;html=1;exitX=0.5;exitY=1;exitDx=0;exitDy=0;entryX=1;entryY=0.5;entryDx=0;entryDy=0;" parent="1" source="GqJsvD4xnzZzUc4GvRp6-40" target="GqJsvD4xnzZzUc4GvRp6-69" edge="1">
          <mxGeometry relative="1" as="geometry" />
        </mxCell>
        <mxCell id="GqJsvD4xnzZzUc4GvRp6-40" value="Musician" style="shape=ext;margin=3;double=1;whiteSpace=wrap;html=1;align=center;" parent="1" vertex="1">
          <mxGeometry x="610" y="295" width="100" height="40" as="geometry" />
        </mxCell>
        <mxCell id="GqJsvD4xnzZzUc4GvRp6-41" value="User" style="shape=ext;margin=3;double=1;whiteSpace=wrap;html=1;align=center;" parent="1" vertex="1">
          <mxGeometry x="250" y="295" width="100" height="40" as="geometry" />
        </mxCell>
        <mxCell id="GqJsvD4xnzZzUc4GvRp6-42" value="" style="shape=link;html=1;rounded=0;entryX=1;entryY=0.5;entryDx=0;entryDy=0;exitX=0;exitY=0.5;exitDx=0;exitDy=0;" parent="1" source="GqJsvD4xnzZzUc4GvRp6-37" target="GqJsvD4xnzZzUc4GvRp6-41" edge="1">
          <mxGeometry relative="1" as="geometry">
            <mxPoint x="350" y="250" as="sourcePoint" />
            <mxPoint x="510" y="250" as="targetPoint" />
          </mxGeometry>
        </mxCell>
        <mxCell id="GqJsvD4xnzZzUc4GvRp6-43" value="N" style="resizable=0;html=1;whiteSpace=wrap;align=right;verticalAlign=bottom;" parent="GqJsvD4xnzZzUc4GvRp6-42" connectable="0" vertex="1">
          <mxGeometry x="1" relative="1" as="geometry">
            <mxPoint x="20" as="offset" />
          </mxGeometry>
        </mxCell>
        <mxCell id="GqJsvD4xnzZzUc4GvRp6-44" value="" style="shape=link;html=1;rounded=0;exitX=1;exitY=0.5;exitDx=0;exitDy=0;entryX=0;entryY=0.5;entryDx=0;entryDy=0;" parent="1" source="GqJsvD4xnzZzUc4GvRp6-37" target="GqJsvD4xnzZzUc4GvRp6-40" edge="1">
          <mxGeometry relative="1" as="geometry">
            <mxPoint x="470" y="250" as="sourcePoint" />
            <mxPoint x="630" y="250" as="targetPoint" />
          </mxGeometry>
        </mxCell>
        <mxCell id="GqJsvD4xnzZzUc4GvRp6-45" value="N" style="resizable=0;html=1;whiteSpace=wrap;align=right;verticalAlign=bottom;" parent="GqJsvD4xnzZzUc4GvRp6-44" connectable="0" vertex="1">
          <mxGeometry x="1" relative="1" as="geometry">
            <mxPoint x="-10" as="offset" />
          </mxGeometry>
        </mxCell>
        <mxCell id="GqJsvD4xnzZzUc4GvRp6-48" value="count listening" style="ellipse;whiteSpace=wrap;html=1;align=center;" parent="1" vertex="1">
          <mxGeometry x="310" y="30" width="90" height="30" as="geometry" />
        </mxCell>
        <mxCell id="GqJsvD4xnzZzUc4GvRp6-49" value="duration" style="ellipse;whiteSpace=wrap;html=1;align=center;" parent="1" vertex="1">
          <mxGeometry x="419" y="30" width="90" height="30" as="geometry" />
        </mxCell>
        <mxCell id="GqJsvD4xnzZzUc4GvRp6-50" value="text" style="ellipse;whiteSpace=wrap;html=1;align=center;" parent="1" vertex="1">
          <mxGeometry x="530" y="30" width="90" height="30" as="geometry" />
        </mxCell>
        <mxCell id="GqJsvD4xnzZzUc4GvRp6-54" value="listen" style="shape=rhombus;perimeter=rhombusPerimeter;whiteSpace=wrap;html=1;align=center;" parent="1" vertex="1">
          <mxGeometry x="240" y="160" width="120" height="60" as="geometry" />
        </mxCell>
        <mxCell id="GqJsvD4xnzZzUc4GvRp6-55" value="" style="shape=link;html=1;rounded=0;exitX=0.5;exitY=1;exitDx=0;exitDy=0;entryX=0.5;entryY=0;entryDx=0;entryDy=0;" parent="1" source="GqJsvD4xnzZzUc4GvRp6-54" target="GqJsvD4xnzZzUc4GvRp6-41" edge="1">
          <mxGeometry relative="1" as="geometry">
            <mxPoint x="330" y="270" as="sourcePoint" />
            <mxPoint x="490" y="270" as="targetPoint" />
          </mxGeometry>
        </mxCell>
        <mxCell id="GqJsvD4xnzZzUc4GvRp6-56" value="N" style="resizable=0;html=1;whiteSpace=wrap;align=right;verticalAlign=bottom;" parent="GqJsvD4xnzZzUc4GvRp6-55" connectable="0" vertex="1">
          <mxGeometry x="1" relative="1" as="geometry" />
        </mxCell>
        <mxCell id="GqJsvD4xnzZzUc4GvRp6-57" value="" style="shape=link;html=1;rounded=0;entryX=0;entryY=0.5;entryDx=0;entryDy=0;exitX=0.5;exitY=0;exitDx=0;exitDy=0;" parent="1" source="GqJsvD4xnzZzUc4GvRp6-54" target="GqJsvD4xnzZzUc4GvRp6-10" edge="1">
          <mxGeometry relative="1" as="geometry">
            <mxPoint x="330" y="270" as="sourcePoint" />
            <mxPoint x="490" y="270" as="targetPoint" />
          </mxGeometry>
        </mxCell>
        <mxCell id="GqJsvD4xnzZzUc4GvRp6-58" value="N" style="resizable=0;html=1;whiteSpace=wrap;align=right;verticalAlign=bottom;" parent="GqJsvD4xnzZzUc4GvRp6-57" connectable="0" vertex="1">
          <mxGeometry x="1" relative="1" as="geometry" />
        </mxCell>
        <mxCell id="GqJsvD4xnzZzUc4GvRp6-59" value="write" style="shape=rhombus;perimeter=rhombusPerimeter;whiteSpace=wrap;html=1;align=center;" parent="1" vertex="1">
          <mxGeometry x="520" y="205" width="120" height="60" as="geometry" />
        </mxCell>
        <mxCell id="GqJsvD4xnzZzUc4GvRp6-60" value="" style="shape=link;html=1;rounded=0;entryX=0.5;entryY=0;entryDx=0;entryDy=0;exitX=1;exitY=1;exitDx=0;exitDy=0;" parent="1" source="GqJsvD4xnzZzUc4GvRp6-59" target="GqJsvD4xnzZzUc4GvRp6-40" edge="1">
          <mxGeometry relative="1" as="geometry">
            <mxPoint x="330" y="270" as="sourcePoint" />
            <mxPoint x="490" y="270" as="targetPoint" />
          </mxGeometry>
        </mxCell>
        <mxCell id="GqJsvD4xnzZzUc4GvRp6-61" value="N" style="resizable=0;html=1;whiteSpace=wrap;align=right;verticalAlign=bottom;" parent="GqJsvD4xnzZzUc4GvRp6-60" connectable="0" vertex="1">
          <mxGeometry x="1" relative="1" as="geometry">
            <mxPoint x="-30" y="-5" as="offset" />
          </mxGeometry>
        </mxCell>
        <mxCell id="GqJsvD4xnzZzUc4GvRp6-62" value="" style="shape=link;html=1;rounded=0;entryX=1;entryY=0.5;entryDx=0;entryDy=0;exitX=0.337;exitY=0.097;exitDx=0;exitDy=0;exitPerimeter=0;" parent="1" source="GqJsvD4xnzZzUc4GvRp6-59" target="GqJsvD4xnzZzUc4GvRp6-10" edge="1">
          <mxGeometry relative="1" as="geometry">
            <mxPoint x="330" y="270" as="sourcePoint" />
            <mxPoint x="490" y="270" as="targetPoint" />
          </mxGeometry>
        </mxCell>
        <mxCell id="GqJsvD4xnzZzUc4GvRp6-63" value="N" style="resizable=0;html=1;whiteSpace=wrap;align=right;verticalAlign=bottom;" parent="GqJsvD4xnzZzUc4GvRp6-62" connectable="0" vertex="1">
          <mxGeometry x="1" relative="1" as="geometry">
            <mxPoint x="16" y="40" as="offset" />
          </mxGeometry>
        </mxCell>
        <mxCell id="GqJsvD4xnzZzUc4GvRp6-65" value="&lt;u&gt;nickname&lt;/u&gt;" style="ellipse;whiteSpace=wrap;html=1;align=center;" parent="1" vertex="1">
          <mxGeometry x="530" y="370" width="90" height="30" as="geometry" />
        </mxCell>
        <mxCell id="GqJsvD4xnzZzUc4GvRp6-66" value="followers count" style="ellipse;whiteSpace=wrap;html=1;align=center;" parent="1" vertex="1">
          <mxGeometry x="530" y="410" width="90" height="30" as="geometry" />
        </mxCell>
        <mxCell id="GqJsvD4xnzZzUc4GvRp6-69" value="about" style="ellipse;whiteSpace=wrap;html=1;align=center;" parent="1" vertex="1">
          <mxGeometry x="530" y="450" width="90" height="30" as="geometry" />
        </mxCell>
        <mxCell id="GqJsvD4xnzZzUc4GvRp6-70" value="year of issue" style="ellipse;whiteSpace=wrap;html=1;align=center;" parent="1" vertex="1">
          <mxGeometry x="640" y="30" width="90" height="30" as="geometry" />
        </mxCell>
        <mxCell id="GqJsvD4xnzZzUc4GvRp6-71" value="&lt;u&gt;id&lt;/u&gt;" style="ellipse;whiteSpace=wrap;html=1;align=center;" parent="1" vertex="1">
          <mxGeometry x="200" y="30" width="90" height="30" as="geometry" />
        </mxCell>
        <mxCell id="GqJsvD4xnzZzUc4GvRp6-85" style="edgeStyle=orthogonalEdgeStyle;rounded=0;orthogonalLoop=1;jettySize=auto;html=1;exitX=1;exitY=0.5;exitDx=0;exitDy=0;entryX=0;entryY=0.5;entryDx=0;entryDy=0;" parent="1" source="GqJsvD4xnzZzUc4GvRp6-81" target="GqJsvD4xnzZzUc4GvRp6-82" edge="1">
          <mxGeometry relative="1" as="geometry" />
        </mxCell>
        <mxCell id="GqJsvD4xnzZzUc4GvRp6-86" style="edgeStyle=orthogonalEdgeStyle;rounded=0;orthogonalLoop=1;jettySize=auto;html=1;exitX=1;exitY=0.5;exitDx=0;exitDy=0;entryX=0;entryY=0.5;entryDx=0;entryDy=0;" parent="1" source="GqJsvD4xnzZzUc4GvRp6-81" target="GqJsvD4xnzZzUc4GvRp6-84" edge="1">
          <mxGeometry relative="1" as="geometry" />
        </mxCell>
        <mxCell id="GqJsvD4xnzZzUc4GvRp6-87" style="edgeStyle=orthogonalEdgeStyle;rounded=0;orthogonalLoop=1;jettySize=auto;html=1;exitX=1;exitY=0.5;exitDx=0;exitDy=0;entryX=0;entryY=0.5;entryDx=0;entryDy=0;" parent="1" source="GqJsvD4xnzZzUc4GvRp6-81" target="GqJsvD4xnzZzUc4GvRp6-83" edge="1">
          <mxGeometry relative="1" as="geometry" />
        </mxCell>
        <mxCell id="GqJsvD4xnzZzUc4GvRp6-81" value="Producer" style="shape=ext;margin=3;double=1;whiteSpace=wrap;html=1;align=center;" parent="1" vertex="1">
          <mxGeometry x="740" y="140" width="100" height="40" as="geometry" />
        </mxCell>
        <mxCell id="GqJsvD4xnzZzUc4GvRp6-82" value="&lt;u&gt;nickname&lt;/u&gt;" style="ellipse;whiteSpace=wrap;html=1;align=center;" parent="1" vertex="1">
          <mxGeometry x="900" y="105" width="90" height="30" as="geometry" />
        </mxCell>
        <mxCell id="GqJsvD4xnzZzUc4GvRp6-83" value="followers count" style="ellipse;whiteSpace=wrap;html=1;align=center;" parent="1" vertex="1">
          <mxGeometry x="900" y="145" width="90" height="30" as="geometry" />
        </mxCell>
        <mxCell id="GqJsvD4xnzZzUc4GvRp6-84" value="about" style="ellipse;whiteSpace=wrap;html=1;align=center;" parent="1" vertex="1">
          <mxGeometry x="900" y="185" width="90" height="30" as="geometry" />
        </mxCell>
        <mxCell id="GqJsvD4xnzZzUc4GvRp6-88" value="follow" style="shape=rhombus;perimeter=rhombusPerimeter;whiteSpace=wrap;html=1;align=center;" parent="1" vertex="1">
          <mxGeometry x="730" y="225" width="120" height="60" as="geometry" />
        </mxCell>
        <mxCell id="GqJsvD4xnzZzUc4GvRp6-89" value="" style="shape=link;html=1;rounded=0;entryX=1;entryY=0.5;entryDx=0;entryDy=0;exitX=0.5;exitY=1;exitDx=0;exitDy=0;" parent="1" source="GqJsvD4xnzZzUc4GvRp6-88" target="GqJsvD4xnzZzUc4GvRp6-40" edge="1">
          <mxGeometry relative="1" as="geometry">
            <mxPoint x="750" y="320" as="sourcePoint" />
            <mxPoint x="910" y="320" as="targetPoint" />
          </mxGeometry>
        </mxCell>
        <mxCell id="GqJsvD4xnzZzUc4GvRp6-90" value="N" style="resizable=0;html=1;whiteSpace=wrap;align=right;verticalAlign=bottom;" parent="GqJsvD4xnzZzUc4GvRp6-89" connectable="0" vertex="1">
          <mxGeometry x="1" relative="1" as="geometry">
            <mxPoint x="20" y="-15" as="offset" />
          </mxGeometry>
        </mxCell>
        <mxCell id="GqJsvD4xnzZzUc4GvRp6-91" value="" style="shape=link;html=1;rounded=0;entryX=0.5;entryY=1;entryDx=0;entryDy=0;" parent="1" source="GqJsvD4xnzZzUc4GvRp6-88" target="GqJsvD4xnzZzUc4GvRp6-81" edge="1">
          <mxGeometry relative="1" as="geometry">
            <mxPoint x="790" y="220" as="sourcePoint" />
            <mxPoint x="650" y="310" as="targetPoint" />
          </mxGeometry>
        </mxCell>
        <mxCell id="GqJsvD4xnzZzUc4GvRp6-92" value="N" style="resizable=0;html=1;whiteSpace=wrap;align=right;verticalAlign=bottom;" parent="GqJsvD4xnzZzUc4GvRp6-91" connectable="0" vertex="1">
          <mxGeometry x="1" relative="1" as="geometry">
            <mxPoint x="-10" y="20" as="offset" />
          </mxGeometry>
        </mxCell>
        <mxCell id="GqJsvD4xnzZzUc4GvRp6-94" value="produce" style="shape=rhombus;perimeter=rhombusPerimeter;whiteSpace=wrap;html=1;align=center;" parent="1" vertex="1">
          <mxGeometry x="570" y="130" width="120" height="60" as="geometry" />
        </mxCell>
        <mxCell id="GqJsvD4xnzZzUc4GvRp6-95" value="" style="shape=link;html=1;rounded=0;entryX=0;entryY=0.5;entryDx=0;entryDy=0;exitX=1;exitY=0.5;exitDx=0;exitDy=0;" parent="1" source="GqJsvD4xnzZzUc4GvRp6-94" target="GqJsvD4xnzZzUc4GvRp6-81" edge="1">
          <mxGeometry relative="1" as="geometry">
            <mxPoint x="490" y="310" as="sourcePoint" />
            <mxPoint x="700" y="200" as="targetPoint" />
          </mxGeometry>
        </mxCell>
        <mxCell id="GqJsvD4xnzZzUc4GvRp6-96" value="N" style="resizable=0;html=1;whiteSpace=wrap;align=right;verticalAlign=bottom;" parent="GqJsvD4xnzZzUc4GvRp6-95" connectable="0" vertex="1">
          <mxGeometry x="1" relative="1" as="geometry">
            <mxPoint x="-10" as="offset" />
          </mxGeometry>
        </mxCell>
        <mxCell id="GqJsvD4xnzZzUc4GvRp6-97" value="" style="shape=link;html=1;rounded=0;entryX=1;entryY=0.5;entryDx=0;entryDy=0;" parent="1" source="GqJsvD4xnzZzUc4GvRp6-94" target="GqJsvD4xnzZzUc4GvRp6-10" edge="1">
          <mxGeometry relative="1" as="geometry">
            <mxPoint x="490" y="310" as="sourcePoint" />
            <mxPoint x="650" y="310" as="targetPoint" />
          </mxGeometry>
        </mxCell>
        <mxCell id="GqJsvD4xnzZzUc4GvRp6-98" value="N" style="resizable=0;html=1;whiteSpace=wrap;align=right;verticalAlign=bottom;" parent="GqJsvD4xnzZzUc4GvRp6-97" connectable="0" vertex="1">
          <mxGeometry x="1" relative="1" as="geometry">
            <mxPoint x="16" y="-5" as="offset" />
          </mxGeometry>
        </mxCell>
      </root>
    </mxGraphModel>
  </diagram>
</mxfile>
